<?xml version="1.0" standalone="no"?>
<!DOCTYPE svg PUBLIC "-//W3C//DTD SVG 20010904//EN"
 "http://www.w3.org/TR/2001/REC-SVG-20010904/DTD/svg10.dtd">
<svg version="1.0" xmlns="http://www.w3.org/2000/svg"
 width="949.527106pt" height="741.743957pt" viewBox="0 0 949.527106 741.743957"
 preserveAspectRatio="xMidYMid meet">
<metadata>
Created by potrace 1.12, written by Peter Selinger 2001-2015
</metadata>
<g transform="translate(-539.913125,986.743957) scale(0.100000,-0.100000)"
fill="#000000" stroke="none">
<path d="M14660 9848 c-43 -22 -48 -30 -140 -213 -112 -224 -257 -553 -348
-790 -36 -93 -69 -174 -74 -180 -4 -5 -8 4 -8 22 0 37 -9 63 -21 63 -5 0 -42
-33 -82 -74 -84 -85 -130 -116 -173 -116 -73 0 -57 87 71 375 51 115 160 342
170 353 1 1 51 11 111 22 176 33 206 56 144 115 -28 27 -32 28 -100 21 l-70
-6 37 74 c21 42 33 80 30 90 -8 19 -61 21 -96 3 -18 -9 -109 -142 -123 -179
-2 -4 -51 -14 -110 -22 -121 -15 -165 -39 -196 -103 -16 -33 -16 -36 3 -49 24
-18 52 -17 140 1 38 8 71 15 72 15 0 0 -42 -91 -94 -202 -156 -333 -195 -485
-146 -571 37 -64 141 -88 220 -51 21 10 77 56 126 103 48 46 87 82 87 80 0 -2
-11 -38 -24 -79 -26 -81 -23 -90 25 -90 34 0 49 13 100 90 142 214 419 560
419 523 0 -6 -18 -50 -41 -99 -103 -223 -135 -383 -86 -439 43 -51 155 -51
241 -1 49 28 152 134 165 169 12 31 2 107 -15 114 -8 3 -49 -33 -99 -85 -91
-96 -134 -123 -160 -102 -8 7 -15 21 -15 30 0 24 48 158 121 343 81 203 78
239 -19 240 -38 1 -57 -6 -92 -30 -53 -36 -191 -178 -240 -246 -19 -27 -36
-44 -38 -39 -7 23 185 435 342 732 48 90 86 173 84 185 -4 29 -44 30 -98 3z"/>
<path d="M13186 9708 c-49 -10 -136 -59 -136 -76 0 -9 10 -11 34 -7 28 6 36 3
45 -13 18 -34 13 -54 -38 -158 -111 -227 -273 -464 -483 -709 -109 -126 -215
-228 -232 -222 -34 11 -1 135 96 362 82 193 148 319 234 445 87 130 93 145 63
160 -28 15 -141 9 -163 -9 -9 -7 -75 -90 -148 -183 -179 -231 -517 -635 -620
-741 -78 -82 -118 -106 -118 -72 0 22 43 132 84 213 54 107 150 266 328 544
87 135 162 257 167 271 14 36 -5 56 -69 73 -63 16 -46 25 -258 -128 -110 -78
-165 -108 -147 -78 14 22 -25 8 -44 -16 -30 -39 -34 -60 -16 -98 19 -39 56
-57 97 -46 29 9 107 60 128 85 7 9 23 21 34 27 18 9 19 9 10 -3 -84 -105 -225
-308 -293 -421 -163 -272 -233 -520 -167 -591 36 -38 84 -60 120 -53 105 20
339 242 535 508 36 48 67 86 69 84 2 -2 -10 -35 -26 -73 -80 -180 -113 -349
-83 -422 24 -56 109 -68 191 -26 211 107 664 643 846 1002 90 176 118 308 75
347 -27 24 -71 34 -115 24z"/>
<path d="M10763 9505 c-38 -16 -100 -117 -236 -387 -174 -344 -268 -576 -302
-747 -20 -96 -9 -149 39 -197 43 -43 75 -50 138 -29 142 46 305 212 404 410
73 148 80 258 18 316 -23 21 -35 24 -102 24 -57 -1 -89 -6 -124 -22 -27 -12
-48 -18 -48 -12 0 11 202 417 266 535 54 100 57 124 12 124 -18 -1 -47 -7 -65
-15z m-53 -754 c39 -74 -43 -244 -188 -389 -79 -78 -142 -113 -168 -91 -24 20
-13 95 31 214 61 163 92 226 108 219 8 -3 43 8 78 24 106 49 123 52 139 23z"/>
<path d="M13581 9443 c-50 -25 -83 -81 -79 -134 3 -43 4 -44 39 -47 62 -5 129
68 129 141 0 57 -28 70 -89 40z"/>
<path d="M9440 9364 c-324 -59 -669 -243 -917 -490 -132 -132 -224 -294 -223
-398 1 -87 77 -164 187 -186 120 -25 269 46 289 138 3 15 7 33 10 39 2 7 1 20
-2 28 -5 12 -14 9 -44 -15 -82 -65 -162 -85 -220 -55 -37 19 -50 43 -50 92 1
54 27 106 100 196 156 194 433 382 680 461 134 43 185 53 177 34 -3 -8 -86
-149 -184 -314 -99 -164 -226 -381 -284 -482 -101 -177 -106 -184 -159 -215
-270 -153 -492 -342 -555 -471 -46 -94 -36 -196 24 -250 30 -27 132 -18 209
19 113 55 249 222 410 505 l72 125 79 44 c43 24 96 60 117 80 69 66 117 161
82 161 -7 0 -43 -16 -80 -35 -38 -19 -68 -31 -68 -26 0 13 332 579 435 741
140 220 141 224 100 265 -28 29 -66 31 -185 9z m-784 -1479 c-120 -178 -230
-285 -293 -285 -90 0 12 133 246 319 63 50 117 89 119 86 3 -3 -29 -57 -72
-120z"/>
<path d="M13399 9122 c-50 -32 -139 -129 -139 -151 0 -8 9 -24 19 -35 20 -21
19 -22 -44 -156 -108 -230 -116 -275 -63 -336 58 -65 120 -79 209 -45 124 47
224 163 216 249 -7 67 -22 73 -59 27 -17 -22 -55 -63 -84 -92 -80 -79 -164
-95 -164 -30 0 11 49 127 109 257 61 131 112 248 115 261 6 27 -8 50 -41 67
-28 15 -22 17 -74 -16z"/>
<path d="M6490 9104 c-67 -12 -163 -41 -235 -71 -351 -150 -720 -534 -825
-861 -55 -169 -36 -303 50 -360 103 -69 308 31 533 261 53 55 97 95 97 90 0
-22 -355 -483 -419 -543 -197 -188 -265 -304 -193 -331 15 -6 45 -8 68 -4 50
7 79 36 232 231 81 103 151 177 259 276 334 304 352 326 256 315 -40 -4 -54
-13 -122 -81 -123 -123 -120 -110 37 129 57 88 144 217 193 287 49 69 89 131
89 137 0 12 -26 19 -79 23 l-35 3 65 40 c81 50 208 176 237 236 18 36 21 56
16 88 -8 51 -41 102 -77 119 -29 14 -108 23 -147 16z m88 -144 c8 -69 -201
-251 -316 -275 -27 -6 -33 -3 -40 15 -8 20 -8 20 -34 -7 -37 -39 -44 -74 -21
-102 31 -38 82 -42 172 -15 20 6 22 5 14 -10 -18 -32 -228 -249 -332 -344
-310 -280 -480 -349 -481 -197 -1 160 185 439 454 683 188 169 407 285 531
279 45 -2 50 -4 53 -27z"/>
<path d="M7735 9061 c-11 -5 -44 -49 -74 -99 -59 -99 -46 -92 -189 -108 -76
-8 -139 -45 -167 -99 -19 -36 -19 -37 0 -51 24 -18 52 -17 139 1 38 8 71 13
73 11 2 -1 -32 -77 -76 -167 -132 -276 -181 -414 -181 -514 0 -97 57 -155 153
-155 64 0 100 18 189 94 93 80 113 109 111 165 -3 74 -14 72 -107 -16 -92 -90
-134 -116 -174 -111 -25 3 -27 7 -30 56 -3 43 5 72 44 170 40 101 217 488 227
499 2 2 62 14 133 28 102 19 133 29 147 46 17 22 17 23 -15 57 -33 34 -34 34
-100 29 -38 -3 -68 -3 -68 0 0 3 16 38 36 78 20 40 33 78 30 84 -8 13 -72 14
-101 2z"/>
<path d="M9803 8800 c-158 -79 -319 -291 -353 -468 -64 -322 215 -348 460 -44
117 145 199 314 200 410 0 57 -41 102 -93 102 -19 0 -40 7 -47 15 -21 26 -99
19 -167 -15z m110 -100 c3 -12 14 -20 26 -20 33 0 27 -44 -19 -138 -92 -191
-233 -342 -319 -342 -27 0 -35 16 -33 71 3 125 131 321 272 418 53 36 66 38
73 11z"/>
<path d="M7002 8576 c-129 -32 -275 -131 -328 -223 -22 -37 -26 -53 -22 -100
4 -44 10 -61 29 -76 l24 -19 -25 -17 c-92 -60 -124 -111 -117 -185 9 -93 96
-143 232 -133 39 3 95 15 126 26 63 24 177 101 227 153 31 33 33 39 30 93 -2
32 -7 60 -13 61 -5 2 -53 -35 -105 -81 -115 -103 -162 -128 -251 -133 -58 -4
-70 -1 -88 17 -12 12 -21 30 -21 41 0 26 59 82 150 141 95 61 130 88 130 99 0
5 -11 21 -24 36 l-23 28 -60 -22 c-64 -23 -103 -28 -103 -12 0 27 166 170 198
170 6 0 12 -10 14 -22 7 -53 107 -22 148 44 22 37 26 90 8 106 -22 18 -81 21
-136 8z"/>
<path d="M12110 7435 c-115 -30 -272 -105 -363 -175 -82 -62 -97 -88 -73 -125
25 -38 58 -32 133 26 115 88 269 156 408 179 97 17 124 46 95 101 -15 26 -80
25 -200 -6z"/>
<path d="M12582 7408 c-13 -13 -16 -57 -4 -74 4 -6 33 -24 65 -39 77 -36 176
-129 215 -202 16 -32 40 -92 52 -133 13 -41 27 -81 33 -87 15 -20 62 -15 82 7
18 20 18 23 1 93 -19 83 -66 182 -121 258 -88 119 -277 223 -323 177z"/>
<path d="M13833 7395 c-16 -11 -23 -30 -28 -77 -10 -90 -53 -281 -82 -361 -28
-79 -25 -113 14 -128 44 -17 67 9 102 113 42 125 70 255 77 360 l7 87 -27 11
c-35 13 -38 13 -63 -5z"/>
<path d="M11523 6900 c-29 -12 -37 -47 -30 -120 17 -157 104 -292 276 -425 86
-65 141 -62 141 9 0 28 -9 38 -65 80 -146 107 -223 224 -234 359 -5 61 -11 82
-26 93 -21 16 -31 16 -62 4z"/>
<path d="M13482 6536 c-85 -100 -202 -196 -315 -259 -101 -56 -107 -62 -107
-92 0 -31 25 -55 58 -55 34 0 163 73 258 145 117 90 264 252 264 293 0 20 -38
52 -63 52 -17 0 -43 -23 -95 -84z"/>
<path d="M12973 6595 c-17 -12 -22 -29 -28 -112 -9 -125 -38 -301 -71 -426
-29 -108 -26 -143 10 -153 43 -10 64 4 80 54 48 146 96 424 96 556 0 86 -34
118 -87 81z"/>
<path d="M12136 6231 c-24 -27 -16 -62 19 -86 50 -33 273 -103 370 -116 100
-13 259 -7 281 12 16 13 18 52 4 80 -10 17 -22 19 -140 19 -152 0 -229 14
-371 69 -118 46 -139 49 -163 22z"/>
<path d="M12747 5669 c-9 -6 -34 -43 -53 -82 -57 -113 -121 -222 -206 -353
-43 -66 -78 -130 -78 -141 0 -25 30 -53 58 -53 30 0 92 81 201 264 102 173
161 287 161 314 0 40 -49 70 -83 51z"/>
<path d="M12002 4640 c-125 -128 -231 -240 -236 -251 -13 -26 17 -69 49 -69
52 0 485 437 485 489 0 24 -21 48 -48 56 -19 5 -53 -25 -250 -225z"/>
<path d="M11449 4142 c-101 -79 -236 -176 -346 -250 -86 -58 -113 -85 -113
-111 0 -18 39 -51 60 -51 25 0 174 99 368 244 164 122 182 139 182 166 0 25
-34 60 -59 60 -10 0 -52 -26 -92 -58z"/>
<path d="M10645 3603 c-44 -25 -170 -92 -280 -148 -109 -56 -203 -109 -208
-117 -15 -23 1 -67 27 -79 21 -10 46 0 192 73 202 102 406 215 416 231 22 35
-7 87 -48 87 -10 0 -55 -21 -99 -47z"/>
<path d="M9760 3184 c-47 -19 -177 -66 -290 -104 -179 -59 -207 -72 -218 -95
-19 -37 6 -75 49 -75 60 0 572 182 611 217 37 33 9 94 -43 93 -13 -1 -62 -17
-109 -36z"/>
<path d="M8592 3183 c-7 -3 -89 -93 -182 -200 -174 -200 -188 -224 -152 -256
37 -33 457 -277 477 -277 27 0 55 30 55 58 0 26 -29 48 -188 142 -67 40 -125
76 -127 80 -3 4 23 10 58 14 91 10 299 44 379 62 75 17 105 45 93 84 -13 41
-38 43 -188 16 -192 -34 -298 -48 -330 -44 -26 3 -26 3 29 68 166 194 169 197
142 232 -15 18 -47 29 -66 21z"/>
</g>
</svg>
