<svg xmlns="http://www.w3.org/2000/svg" xmlns:xlink="http://www.w3.org/1999/xlink" version="1.1" x="0px" y="0px" viewBox="0 0 100 125" enable-background="new 0 0 100 100" xml:space="preserve"><g><path d="M73.778,67.546c-0.663,0-1.2-0.538-1.2-1.2v-0.159c0-1.612-0.063-3.194-0.187-4.701c-0.055-0.661,0.437-1.24,1.097-1.294   c0.658-0.064,1.24,0.437,1.294,1.097c0.13,1.572,0.196,3.22,0.196,4.898v0.159C74.978,67.008,74.44,67.546,73.778,67.546z    M72.921,57.64c-0.565,0-1.068-0.4-1.177-0.976c-0.311-1.635-0.714-3.21-1.199-4.684c-0.207-0.629,0.136-1.308,0.766-1.515   c0.628-0.206,1.308,0.136,1.515,0.766c0.517,1.571,0.946,3.249,1.276,4.985c0.124,0.651-0.303,1.279-0.955,1.403   C73.071,57.633,72.996,57.64,72.921,57.64z M69.774,48.198c-0.436,0-0.856-0.238-1.069-0.653c-0.738-1.439-1.593-2.798-2.541-4.04   c-0.402-0.527-0.301-1.28,0.225-1.682c0.527-0.402,1.28-0.301,1.682,0.225c1.035,1.355,1.966,2.836,2.77,4.402   c0.302,0.589,0.069,1.313-0.52,1.615C70.146,48.156,69.958,48.198,69.774,48.198z M63.733,40.316c-0.285,0-0.571-0.101-0.8-0.307   c-1.166-1.044-2.455-2.003-3.831-2.848c-0.564-0.347-0.741-1.086-0.394-1.651c0.348-0.565,1.086-0.74,1.651-0.394   c1.498,0.92,2.902,1.965,4.175,3.106c0.494,0.442,0.535,1.201,0.093,1.694C64.39,40.181,64.062,40.316,63.733,40.316z    M11.036,35.729c-0.507,0-0.978-0.323-1.142-0.832c-0.204-0.63,0.142-1.307,0.772-1.511c0.076-0.024,1.898-0.61,4.926-1.331   c0.646-0.15,1.292,0.245,1.445,0.89s-0.245,1.292-0.89,1.445c-2.927,0.697-4.726,1.274-4.744,1.28   C11.282,35.71,11.158,35.729,11.036,35.729z M55.28,35.08c-0.153,0-0.309-0.029-0.459-0.092c-1.436-0.595-2.979-1.113-4.585-1.541   c-0.641-0.17-1.022-0.828-0.852-1.468c0.17-0.641,0.83-1.021,1.468-0.852c1.71,0.455,3.354,1.007,4.888,1.643   c0.612,0.253,0.903,0.956,0.649,1.568C56.197,34.801,55.75,35.08,55.28,35.08z M20.764,33.387c-0.567,0-1.071-0.403-1.178-0.981   c-0.121-0.652,0.309-1.278,0.96-1.399c1.673-0.311,3.355-0.58,5-0.8c0.661-0.091,1.261,0.374,1.349,1.03   c0.088,0.657-0.374,1.261-1.03,1.349c-1.605,0.214-3.247,0.477-4.88,0.78C20.911,33.38,20.837,33.387,20.764,33.387z    M45.648,32.477c-0.06,0-0.121-0.004-0.182-0.014c-1.553-0.237-3.19-0.409-4.866-0.511c-0.662-0.041-1.165-0.61-1.125-1.271   c0.041-0.662,0.598-1.16,1.271-1.125c1.748,0.107,3.457,0.287,5.081,0.534c0.655,0.1,1.105,0.712,1.006,1.367   C46.742,32.051,46.231,32.477,45.648,32.477z M30.678,32.071c-0.621,0-1.146-0.479-1.195-1.108   c-0.051-0.661,0.443-1.238,1.104-1.289c1.723-0.133,3.43-0.212,5.073-0.233c0.005,0,0.011,0,0.016,0   c0.655,0,1.191,0.527,1.199,1.185c0.009,0.663-0.521,1.207-1.184,1.215c-1.591,0.021-3.247,0.098-4.919,0.227   C30.741,32.069,30.709,32.071,30.678,32.071z"/></g><g><path d="M73.337,69.617c-0.826,0-1.607-0.421-2.144-1.155l-6.59-9.005c-0.392-0.535-0.275-1.286,0.26-1.677   c0.534-0.391,1.286-0.274,1.677,0.26l6.59,9.005c0.207,0.282,0.208,0.282,0.415-0.001l6.52-8.997   c0.39-0.537,1.139-0.656,1.676-0.268c0.537,0.389,0.656,1.139,0.268,1.676l-6.52,8.997c-0.536,0.739-1.317,1.164-2.145,1.166   C73.341,69.617,73.339,69.617,73.337,69.617z"/></g></svg>