<?xml version="1.0" standalone="no"?>
<!DOCTYPE svg PUBLIC "-//W3C//DTD SVG 20010904//EN"
 "http://www.w3.org/TR/2001/REC-SVG-20010904/DTD/svg10.dtd">
<svg version="1.0" xmlns="http://www.w3.org/2000/svg"
 width="1272.678658pt" height="787.270864pt" viewBox="0 0 1272.678658 787.270864"
 preserveAspectRatio="xMidYMid meet">
<metadata>
Created by potrace 1.12, written by Peter Selinger 2001-2015
</metadata>
<g transform="translate(-248.209212,994.853403) scale(0.100000,-0.100000)"
fill="#000000" stroke="none">
<path d="M14462 9943 c-24 -5 -77 -77 -132 -180 -18 -35 -37 -63 -41 -63 -5 0
-59 -7 -120 -16 -150 -20 -201 -48 -243 -131 -22 -44 -20 -58 9 -71 35 -16 54
-15 160 7 50 11 91 18 93 17 1 -2 -25 -61 -59 -132 -91 -193 -173 -387 -210
-499 -26 -82 -33 -116 -33 -191 -1 -81 2 -94 24 -127 36 -53 92 -80 165 -81
82 -1 143 34 264 151 53 51 97 93 99 93 1 0 2 -9 2 -21 0 -40 33 -92 77 -119
113 -72 291 -59 458 34 65 37 219 165 229 191 8 21 6 92 -3 125 -4 14 -14 26
-23 28 -10 2 -61 -38 -125 -98 -136 -127 -221 -174 -318 -174 -81 0 -115 20
-115 68 0 51 72 114 274 239 56 35 67 67 39 105 -27 36 -50 38 -124 8 -69 -29
-109 -33 -109 -13 0 31 202 206 238 207 6 0 12 -11 12 -24 0 -85 162 -22 199
77 42 109 -26 155 -174 117 -196 -50 -390 -202 -425 -331 -16 -60 -3 -128 32
-162 16 -16 28 -30 26 -32 -2 -1 -24 -16 -50 -33 -25 -18 -60 -48 -76 -68 -31
-37 -35 -37 -46 9 -3 15 -13 27 -22 27 -8 0 -61 -46 -117 -103 -107 -108 -166
-145 -211 -133 -24 6 -26 10 -26 65 0 71 30 161 137 411 81 188 189 420 196
420 31 0 307 64 324 75 35 23 29 57 -18 100 -44 39 -32 38 -159 19 -22 -3 -40
-3 -40 0 0 4 18 42 40 86 43 86 49 114 24 124 -17 6 -65 6 -102 -1z"/>
<path d="M12843 9780 c-22 -9 -59 -61 -124 -175 l-35 -60 -69 -11 c-39 -7 -96
-15 -128 -19 -71 -8 -131 -50 -167 -117 -20 -39 -22 -49 -11 -62 22 -26 71
-28 170 -6 51 11 95 19 97 17 2 -2 -27 -69 -65 -148 -208 -434 -272 -654 -226
-774 21 -56 68 -90 142 -104 97 -19 172 20 322 166 36 34 65 62 66 60 1 -1 7
-22 14 -47 16 -55 64 -104 119 -121 37 -11 51 -10 97 5 86 27 231 153 301 261
l19 29 5 -76 c5 -63 11 -82 34 -113 51 -67 132 -81 221 -39 49 23 164 131 206
192 28 43 30 52 26 105 -5 54 -19 87 -37 87 -4 0 -40 -40 -79 -90 -98 -125
-181 -180 -207 -138 -34 54 61 394 157 565 49 88 34 123 -52 123 -44 0 -54 -4
-80 -32 -16 -18 -29 -28 -29 -22 0 17 -68 44 -109 44 -60 0 -163 -36 -228 -80
-66 -43 -211 -190 -260 -260 -40 -59 -78 -134 -93 -187 -11 -35 -16 -41 -27
-31 -11 9 -34 -10 -116 -93 -181 -186 -279 -197 -247 -29 15 78 121 340 260
640 34 74 64 136 65 138 1 1 63 14 136 28 220 42 260 72 187 141 -44 41 -58
44 -136 33 -36 -5 -68 -8 -69 -6 -2 2 15 42 37 91 44 97 47 110 24 119 -22 9
-85 6 -111 -4z m636 -657 c-100 -165 -175 -282 -200 -312 -66 -77 -243 -251
-262 -257 -46 -15 -46 42 2 158 84 201 281 404 425 439 57 13 59 11 35 -28z"/>
<path d="M9972 9663 c-12 -2 -33 -19 -46 -36 -13 -18 -103 -190 -199 -383
l-176 -350 -223 -28 c-291 -35 -382 -44 -388 -39 -5 5 62 139 240 476 71 136
130 256 130 266 0 21 -26 46 -60 59 -29 11 -82 0 -113 -22 -12 -9 -65 -47
-117 -86 -132 -97 -218 -141 -288 -147 -72 -6 -116 9 -109 38 8 30 -17 34 -67
10 -137 -67 -92 -226 68 -246 93 -12 250 41 323 108 13 11 25 19 27 16 2 -2
-27 -60 -65 -128 -38 -69 -100 -182 -137 -252 l-67 -128 -50 -6 c-27 -3 -99
-7 -159 -10 -60 -2 -114 -9 -119 -14 -14 -14 18 -100 50 -133 25 -26 32 -28
106 -28 l79 0 -25 -42 c-54 -95 -209 -391 -228 -441 -31 -76 -39 -118 -28
-139 9 -16 20 -19 74 -16 35 1 67 -1 71 -4 18 -19 47 24 115 168 41 87 110
235 154 328 l80 170 175 17 c190 19 354 37 413 46 l37 6 -86 -179 c-96 -200
-188 -408 -196 -441 -3 -12 0 -30 7 -39 13 -18 44 -17 150 6 l50 11 129 272
c181 379 363 750 510 1034 69 133 128 253 132 267 4 18 1 27 -14 35 -20 11
-113 13 -160 4z"/>
<path d="M12165 9548 c-46 -40 -75 -97 -75 -147 0 -70 51 -91 120 -50 58 36
100 105 100 167 0 49 -14 62 -67 62 -33 0 -50 -7 -78 -32z"/>
<path d="M6445 9206 c-66 -30 -103 -97 -84 -153 10 -30 7 -39 -25 -99 -41 -74
-44 -89 -17 -104 53 -28 113 1 204 99 56 60 77 104 77 161 0 78 -83 130 -155
96z"/>
<path d="M7017 9210 c-36 -11 -55 -35 -117 -147 -57 -101 -45 -94 -185 -113
-101 -14 -133 -24 -175 -55 -33 -24 -80 -95 -80 -121 0 -36 77 -43 195 -17 41
9 78 14 81 11 3 -3 -18 -52 -46 -108 -141 -282 -245 -555 -256 -678 -11 -124
27 -197 118 -228 61 -20 128 -14 187 16 60 30 237 204 251 246 15 45 -1 134
-23 134 -7 0 -55 -43 -107 -96 -110 -110 -164 -147 -212 -142 -33 3 -33 3 -36
60 -2 44 4 79 29 150 34 101 155 385 242 569 l55 116 103 18 c202 35 249 54
249 101 0 13 -15 35 -35 53 -38 33 -76 39 -162 22 -25 -5 -43 -5 -43 1 0 4 18
44 40 88 22 44 40 87 40 95 0 29 -58 41 -113 25z"/>
<path d="M11974 9172 c-48 -35 -152 -147 -167 -179 -9 -20 -6 -28 17 -52 l28
-29 -57 -124 c-109 -233 -144 -341 -130 -396 20 -82 127 -149 219 -138 111 13
270 126 323 230 20 40 24 60 21 102 -3 29 -10 60 -18 69 -12 14 -15 14 -33 -2
-10 -10 -42 -47 -70 -82 -92 -116 -199 -177 -243 -140 -25 21 -12 63 75 252
44 96 105 234 135 306 53 124 55 134 42 160 -15 28 -53 51 -85 51 -10 0 -36
-13 -57 -28z"/>
<path d="M11375 9170 c-147 -30 -382 -162 -474 -267 -110 -124 -115 -256 -14
-315 16 -10 106 -31 202 -47 95 -16 178 -34 183 -39 41 -41 -101 -128 -250
-154 -61 -10 -73 -10 -95 4 -13 9 -27 31 -30 48 -6 29 -9 31 -44 28 -52 -4
-83 -51 -83 -123 0 -94 55 -135 180 -135 91 0 145 13 249 62 227 104 326 260
234 369 -49 58 -130 84 -341 109 -68 8 -105 17 -109 26 -19 49 227 228 345
250 32 6 32 6 26 -25 -12 -59 44 -78 119 -40 99 50 138 123 107 204 -18 48
-101 66 -205 45z"/>
<path d="M10442 9025 c-167 -47 -346 -176 -398 -290 -37 -78 -27 -175 21 -214
l25 -19 -44 -26 c-143 -83 -175 -248 -65 -335 79 -62 256 -68 385 -14 90 38
166 89 251 168 l68 63 -2 66 c-1 62 -15 101 -34 94 -4 -2 -46 -39 -94 -83
-119 -109 -175 -150 -240 -174 -145 -54 -269 4 -201 94 30 39 170 146 230 176
52 27 86 58 86 79 0 28 -39 70 -65 70 -14 0 -54 -11 -91 -25 -78 -30 -94 -31
-94 -8 0 24 137 156 191 183 56 29 53 29 59 -6 5 -27 9 -29 48 -28 72 1 150
78 159 155 4 36 1 48 -16 63 -28 25 -110 30 -179 11z"/>
<path d="M3270 9004 c-14 -2 -63 -9 -110 -15 -236 -32 -453 -131 -583 -268
-71 -74 -101 -138 -94 -195 7 -54 35 -76 96 -76 52 0 84 17 151 79 l45 42 -32
-5 c-110 -18 81 139 249 205 91 36 199 59 303 66 181 11 314 -29 416 -124 79
-74 94 -110 94 -223 -1 -114 -22 -172 -111 -308 -71 -108 -247 -284 -369 -371
-121 -86 -307 -175 -429 -206 -94 -24 -176 -32 -189 -19 -9 10 193 409 505
997 61 115 97 194 94 204 -5 13 -18 15 -78 9 -39 -3 -82 -12 -96 -19 -52 -26
-548 -943 -611 -1129 -13 -37 -21 -88 -21 -125 0 -62 1 -63 40 -92 54 -39 96
-45 220 -31 338 37 679 210 942 477 110 110 166 185 222 293 103 200 124 415
54 555 -74 146 -238 246 -451 275 -74 9 -202 12 -257 4z"/>
<path d="M5657 8555 c-71 -27 -199 -139 -289 -255 -24 -30 -23 -25 11 45 44
90 64 155 55 179 -13 34 -117 10 -163 -38 -43 -45 -381 -768 -381 -817 0 -25
5 -30 41 -39 87 -24 88 -23 231 197 161 246 430 564 456 539 3 -4 -31 -79 -76
-169 -94 -188 -123 -274 -123 -370 0 -88 22 -126 97 -163 64 -31 117 -29 194
8 62 30 237 201 249 243 9 35 0 110 -16 126 -16 16 -34 1 -117 -93 -110 -126
-186 -170 -236 -138 -18 11 -18 75 0 122 6 18 63 137 127 263 69 138 117 247
120 272 5 37 2 46 -25 73 -25 24 -38 30 -74 29 -24 0 -60 -7 -81 -14z"/>
<path d="M4532 8442 c-142 -51 -333 -242 -418 -417 -164 -342 -38 -603 230
-477 132 62 249 177 371 366 92 141 145 281 145 385 0 47 -4 57 -34 87 -28 28
-41 34 -77 34 -25 0 -50 7 -60 16 -27 25 -96 27 -157 6z m83 -151 c3 -11 16
-21 28 -23 57 -8 4 -164 -115 -343 -119 -178 -281 -294 -318 -226 -59 112 137
461 328 582 54 34 68 36 77 10z"/>
<path d="M12825 7436 c-182 -48 -341 -129 -457 -234 -52 -47 -52 -94 -1 -120
28 -15 45 -8 118 49 119 93 278 164 435 193 92 18 120 35 120 76 0 64 -64 75
-215 36z"/>
<path d="M13317 7402 c-18 -19 -22 -59 -9 -79 4 -7 41 -29 82 -49 141 -71 231
-187 279 -364 12 -41 29 -81 38 -88 29 -21 75 -11 92 20 14 24 14 34 -2 95
-10 37 -38 111 -64 163 -60 122 -161 228 -272 283 -82 41 -120 46 -144 19z"/>
<path d="M14647 7386 c-8 -8 -18 -45 -21 -83 -10 -95 -52 -282 -87 -382 -32
-92 -30 -113 7 -137 40 -27 72 -11 98 49 36 80 74 220 96 350 24 143 25 181 4
201 -19 20 -78 21 -97 2z"/>
<path d="M12181 6857 c-58 -29 -48 -176 20 -316 33 -67 59 -101 128 -170 47
-47 112 -104 144 -125 49 -34 61 -38 85 -30 31 11 52 47 45 75 -3 11 -38 46
-77 76 -170 135 -241 247 -250 395 -3 59 -8 75 -26 90 -26 21 -37 22 -69 5z"/>
<path d="M14291 6477 c-106 -125 -253 -242 -397 -315 -65 -33 -80 -56 -64 -98
17 -45 54 -48 128 -14 150 70 331 216 442 355 55 69 62 103 30 135 -38 38 -63
27 -139 -63z"/>
<path d="M13745 6538 c-30 -17 -32 -24 -40 -117 -11 -146 -34 -290 -71 -440
-39 -159 -37 -185 11 -197 46 -11 72 9 89 71 47 159 88 393 100 568 5 73 4 80
-19 103 -27 27 -40 29 -70 12z"/>
<path d="M12837 6142 c-24 -26 -21 -65 6 -89 23 -22 230 -100 327 -124 35 -9
114 -14 213 -14 155 0 159 1 178 24 24 29 24 53 2 80 -17 20 -29 22 -173 25
-170 3 -230 16 -395 81 -101 40 -135 43 -158 17z"/>
<path d="M13500 5538 c-19 -6 -36 -30 -64 -86 -63 -128 -134 -250 -222 -383
-48 -73 -84 -137 -84 -151 0 -33 29 -58 67 -58 26 0 38 9 66 48 71 96 197 306
262 435 64 127 67 135 54 162 -17 33 -45 45 -79 33z"/>
<path d="M12924 4667 c-11 -7 -40 -34 -64 -62 -24 -27 -131 -138 -237 -246
-106 -107 -193 -203 -193 -213 0 -24 45 -66 70 -66 40 0 488 446 512 511 11
28 -8 68 -37 79 -31 12 -25 12 -51 -3z"/>
<path d="M12038 3852 c-79 -60 -195 -144 -258 -187 -145 -99 -170 -122 -170
-155 0 -33 28 -60 62 -60 36 0 326 198 516 352 63 52 72 63 72 92 0 37 -25 66
-58 66 -12 0 -85 -49 -164 -108z"/>
<path d="M11180 3289 c-80 -45 -216 -116 -302 -160 -88 -44 -162 -88 -168 -99
-22 -42 10 -90 59 -90 38 0 569 278 619 323 12 11 22 31 22 44 0 29 -33 63
-62 63 -13 0 -88 -37 -168 -81z"/>
<path d="M10275 2863 c-60 -24 -198 -74 -305 -110 -107 -36 -203 -69 -212 -74
-23 -13 -32 -52 -18 -79 24 -45 49 -43 233 16 195 64 437 155 473 179 49 32
21 116 -37 114 -13 -1 -73 -21 -134 -46z"/>
<path d="M8998 2833 c-39 -41 -250 -283 -305 -350 -27 -32 -34 -49 -31 -75 3
-32 13 -39 233 -171 277 -167 286 -171 320 -155 30 13 42 50 27 82 -6 13 -74
60 -171 117 -88 51 -161 96 -161 99 0 3 66 13 147 23 196 24 381 62 405 84 29
26 21 84 -13 100 -22 11 -45 9 -145 -12 -130 -26 -327 -55 -375 -55 l-31 0 19
24 c10 13 60 72 111 130 98 113 109 139 72 176 -30 30 -61 25 -102 -17z"/>
</g>
</svg>
