<?xml version="1.0" encoding="utf-8"?>
<!-- Generator: Adobe Illustrator 27.5.0, SVG Export Plug-In . SVG Version: 6.00 Build 0)  -->
<svg version="1.1" xmlns="http://www.w3.org/2000/svg" xmlns:xlink="http://www.w3.org/1999/xlink" x="0px" y="0px"
	 viewBox="0 0 500 500" style="enable-background:new 0 0 500 500;" xml:space="preserve">
<g id="Background_Complete">
	<g>
		<rect x="38.143" y="29.787" style="fill:#FAFAFA;" width="372.271" height="214.298"/>
		<path style="fill:#FFFFFF;" d="M54.77,39.697c0,1.564-1.268,2.832-2.832,2.832c-1.564,0-2.832-1.268-2.832-2.832
			c0-1.564,1.268-2.832,2.832-2.832C53.502,36.865,54.77,38.133,54.77,39.697z"/>
		<path style="fill:#FFFFFF;" d="M65.248,39.697c0,1.564-1.268,2.832-2.832,2.832c-1.564,0-2.832-1.268-2.832-2.832
			c0-1.564,1.268-2.832,2.832-2.832C63.981,36.865,65.248,38.133,65.248,39.697z"/>
		<path style="fill:#FFFFFF;" d="M75.727,39.697c0,1.564-1.268,2.832-2.832,2.832c-1.564,0-2.832-1.268-2.832-2.832
			c0-1.564,1.268-2.832,2.832-2.832C74.459,36.865,75.727,38.133,75.727,39.697z"/>
	</g>
	<g>
		<rect x="288.775" y="224.871" style="fill:#F5F5F5;" width="191.809" height="110.415"/>
		<path style="fill:#FFFFFF;" d="M297.342,229.977c0,0.806-0.653,1.459-1.459,1.459s-1.459-0.653-1.459-1.459
			c0-0.806,0.653-1.459,1.459-1.459S297.342,229.171,297.342,229.977z"/>
		<path style="fill:#FFFFFF;" d="M302.741,229.977c0,0.806-0.653,1.459-1.459,1.459s-1.459-0.653-1.459-1.459
			c0-0.806,0.653-1.459,1.459-1.459S302.741,229.171,302.741,229.977z"/>
		<path style="fill:#FFFFFF;" d="M308.141,229.977c0,0.806-0.653,1.459-1.459,1.459c-0.806,0-1.459-0.653-1.459-1.459
			c0-0.806,0.653-1.459,1.459-1.459C307.487,228.518,308.141,229.171,308.141,229.977z"/>
	</g>
	<g>
		<g>
			<g>
				<rect x="34.465" y="277.581" style="fill:#FAFAFA;" width="103.355" height="130.135"/>
			</g>
			<g>
				<g>
					<path style="fill:#EBEBEB;" d="M137.82,407.716c0,0-0.014-0.22-0.021-0.632c-0.005-0.432-0.012-1.038-0.021-1.828
						c-0.01-1.627-0.024-3.996-0.042-7.074c-0.022-6.191-0.054-15.214-0.094-26.65c-0.043-22.86-0.105-55.348-0.178-93.951
						l0.355,0.355c-30.787,0.012-66.044,0.026-103.343,0.041h-0.011l0.396-0.396c-0.025,48.191-0.048,92.965-0.067,130.134
						l-0.329-0.329c31.121,0.071,56.915,0.129,74.957,0.17c9.022,0.036,16.101,0.065,20.951,0.085
						c2.406,0.016,4.255,0.029,5.528,0.038C137.156,407.692,137.82,407.716,137.82,407.716s-0.617,0.024-1.848,0.036
						c-1.259,0.009-3.087,0.021-5.466,0.037c-4.833,0.02-11.886,0.048-20.877,0.085c-18.092,0.041-43.957,0.1-75.164,0.171
						l-0.329,0.001l0-0.33c-0.019-37.169-0.042-81.943-0.067-130.134l0-0.396h0.396h0.011c37.299,0.015,72.556,0.029,103.343,0.041
						l0.356,0l-0.001,0.355c-0.073,38.698-0.134,71.264-0.177,94.181c-0.04,11.401-0.072,20.397-0.094,26.57
						c-0.018,3.048-0.032,5.393-0.042,7.004c-0.009,0.773-0.016,1.365-0.02,1.789C137.834,407.523,137.82,407.716,137.82,407.716z"
						/>
				</g>
			</g>
		</g>
		<g>
			<g>
				<path style="fill:#EBEBEB;" d="M137.82,342.815c0,0.219-22.946,0.396-51.245,0.396c-28.309,0-51.25-0.177-51.25-0.396
					c0-0.219,22.941-0.396,51.25-0.396C114.874,342.419,137.82,342.597,137.82,342.815z"/>
			</g>
		</g>
		<g>
			<g>
				<path style="fill:#EBEBEB;" d="M137.82,376.717c0,0.219-22.946,0.396-51.245,0.396c-28.309,0-51.25-0.177-51.25-0.396
					c0-0.219,22.941-0.396,51.25-0.396C114.874,376.321,137.82,376.498,137.82,376.717z"/>
			</g>
		</g>
		<g>
			<g>
				<path style="fill:#EBEBEB;" d="M137.82,310.198c0,0.219-22.946,0.396-51.245,0.396c-28.309,0-51.25-0.177-51.25-0.396
					c0-0.219,22.941-0.396,51.25-0.396C114.874,309.802,137.82,309.98,137.82,310.198z"/>
			</g>
		</g>
		<g>
			<g>
				<path style="fill:#E0E0E0;" d="M122.469,295.445c0,0.219-15.741,0.396-35.153,0.396c-19.419,0-35.156-0.177-35.156-0.396
					c0-0.219,15.737-0.396,35.156-0.396C106.728,295.049,122.469,295.227,122.469,295.445z"/>
			</g>
		</g>
		<g>
			<g>
				<path style="fill:#E0E0E0;" d="M122.469,326.507c0,0.219-15.741,0.396-35.153,0.396c-19.419,0-35.156-0.177-35.156-0.396
					c0-0.219,15.737-0.396,35.156-0.396C106.728,326.111,122.469,326.288,122.469,326.507z"/>
			</g>
		</g>
		<g>
			<g>
				<path style="fill:#E0E0E0;" d="M116.633,393.406c0,0.219-14.434,0.396-32.235,0.396c-17.807,0-32.238-0.177-32.238-0.396
					c0-0.219,14.431-0.396,32.238-0.396C102.199,393.01,116.633,393.188,116.633,393.406z"/>
			</g>
		</g>
		<g>
			<g>
				<path style="fill:#E0E0E0;" d="M122.469,359.705c0,0.219-15.741,0.396-35.153,0.396c-19.419,0-35.156-0.177-35.156-0.396
					c0-0.219,15.737-0.396,35.156-0.396C106.728,359.309,122.469,359.487,122.469,359.705z"/>
			</g>
		</g>
	</g>
	<g>
		<g>
			<g>
				<g>
					<g>
						<g>
							<g>
								<g>
									<polygon style="fill:#F5F5F5;" points="256.719,443.974 256.719,471.974 297.664,471.974 342.826,471.974 342.826,443.974 
																			"/>
								</g>
							</g>
						</g>
					</g>
				</g>
				<g>
					<g>
						<g>
							<g>
								<g>
									<polygon style="fill:#E0E0E0;" points="253.106,436.147 253.106,443.974 345.837,443.974 345.837,436.147 297.664,436.147 
																			"/>
								</g>
							</g>
						</g>
					</g>
				</g>
				<g>
					<g>
						<g>
							<g>
								<g>
									<polygon style="fill:#E0E0E0;" points="299.471,471.974 342.826,471.974 342.826,443.974 345.837,443.974 345.837,436.147 
										297.664,436.147 297.664,443.25 									"/>
								</g>
							</g>
						</g>
					</g>
				</g>
				<g>
					<g>
						<g>
							<g>
								<g>
									<rect x="268.762" y="448.49" style="fill:#E0E0E0;" width="17.462" height="4.215"/>
								</g>
							</g>
						</g>
					</g>
				</g>
				<g>
					<g>
						<g>
							<g>
								<g>
									<rect x="266.514" y="457.974" style="fill:#FFFFFF;" width="22.422" height="8.9"/>
								</g>
							</g>
						</g>
					</g>
				</g>
			</g>
		</g>
		<g>
			<g>
				<g>
					<g>
						<g>
							<g>
								<g>
									<polygon style="fill:#F5F5F5;" points="269.966,408.184 269.966,436.184 310.912,436.184 356.073,436.184 356.073,408.184 
																			"/>
								</g>
							</g>
						</g>
					</g>
				</g>
				<g>
					<g>
						<g>
							<g>
								<g>
									<polygon style="fill:#E0E0E0;" points="266.354,400.356 266.354,408.184 359.084,408.184 359.084,400.356 310.912,400.356 
																			"/>
								</g>
							</g>
						</g>
					</g>
				</g>
				<g>
					<g>
						<g>
							<g>
								<g>
									<polygon style="fill:#E0E0E0;" points="312.719,436.184 356.073,436.184 356.073,408.184 359.084,408.184 359.084,400.356 
										310.912,400.356 310.912,407.46 									"/>
								</g>
							</g>
						</g>
					</g>
				</g>
				<g>
					<g>
						<g>
							<g>
								<g>
									<rect x="282.009" y="412.699" style="fill:#E0E0E0;" width="17.462" height="4.215"/>
								</g>
							</g>
						</g>
					</g>
				</g>
				<g>
					<g>
						<g>
							<g>
								<g>
									<rect x="279.762" y="422.183" style="fill:#FFFFFF;" width="22.422" height="8.9"/>
								</g>
							</g>
						</g>
					</g>
				</g>
			</g>
		</g>
	</g>
</g>
<g id="Background_Simple" style="display:none;">
	<path style="display:inline;fill:#F5F5F5;" d="M432.658,73.33l-2.398-3.951c-20.214-33.311-56.762-53.391-95.295-50.955
		c-4.953,0.313-9.885,0.984-14.751,2.025c-35.034,7.499-65.519,33.993-78.154,67.923c-7.431,19.955-9.507,42.931-23.61,58.77
		c-18.353,20.614-49.512,21.261-76.907,20.407c-27.395-0.854-58.575-0.126-76.839,20.57c-11.438,12.961-15.074,31.393-14.151,48.751
		c2.442,45.955,34.464,87.046,75.188,107.47c40.724,20.424,88.673,22.254,133.243,13.269
		c62.438-12.586,121.815-47.151,157.506-100.538C452.181,203.685,461.214,130.951,432.658,73.33z"/>
</g>
<g id="Screen">
	<g>
		<polygon style="fill:#FFFFFF;" points="65.439,53.6 65.439,286.301 450.802,286.301 450.802,81.915 169.135,81.915 168.781,53.6 
					"/>
		<polygon style="fill:#F5F5F5;" points="168.279,85.518 167.916,58.948 263.257,58.948 263.257,85.518 		"/>
		<rect x="263.257" y="63.894" style="fill:#EBEBEB;" width="94.057" height="21.624"/>
		<polygon style="fill:#E0E0E0;" points="357.103,85.518 357.314,66.495 450.802,66.495 450.802,85.518 		"/>
		<g>
			<path style="fill:#FF725E;" d="M149.252,72.233c0,0.144-14.82,0.26-33.097,0.26c-18.283,0-33.1-0.117-33.1-0.26
				s14.817-0.26,33.1-0.26C134.432,71.973,149.252,72.089,149.252,72.233z"/>
		</g>
		<g>
			<path style="fill:#263238;" d="M249.162,72.233c0,0.144-14.82,0.26-33.097,0.26c-18.283,0-33.1-0.117-33.1-0.26
				s14.817-0.26,33.1-0.26C234.342,71.973,249.162,72.089,249.162,72.233z"/>
		</g>
		<g>
			<path style="fill:#263238;" d="M345.138,76.007c0,0.144-14.82,0.26-33.097,0.26c-18.283,0-33.1-0.117-33.1-0.26
				s14.817-0.26,33.1-0.26C330.318,75.746,345.138,75.863,345.138,76.007z"/>
		</g>
		<g>
			<path style="fill:#263238;" d="M438.347,76.745c0,0.144-14.82,0.26-33.097,0.26c-18.283,0-33.1-0.117-33.1-0.26
				c0-0.144,14.817-0.26,33.1-0.26C423.527,76.484,438.347,76.601,438.347,76.745z"/>
		</g>
		<rect x="65.439" y="83.49" style="fill:#FAFAFA;" width="385.363" height="22.701"/>
		<rect x="65.439" y="104.66" style="fill:#FF725E;" width="183.723" height="22.701"/>
		<rect x="357.314" y="104.66" style="fill:#FF725E;" width="93.488" height="22.701"/>
		<g>
			<g>
				<g>
					<g>
						<g>
							<g>
								
									<rect x="90.411" y="156.284" transform="matrix(1 -0.0011 0.0011 1 -0.2195 0.1673)" style="fill:#FF725E;" width="133.78" height="100.552"/>
							</g>
						</g>
					</g>
				</g>
				<g style="opacity:0.2;">
					<g>
						<g>
							<g>
								<polygon points="90.464,256.907 137.123,194.355 166.11,233.429 185.719,212.503 224.244,256.765 								"/>
							</g>
						</g>
					</g>
				</g>
				<g style="opacity:0.2;">
					<g>
						<g>
							<g>
								<g>
									<g>
										<path d="M178.346,186.655c0.006,5.818-4.704,10.539-10.522,10.545c-5.818,0.006-10.538-4.705-10.545-10.522
											c-0.006-5.818,4.705-10.539,10.523-10.545S178.34,180.837,178.346,186.655z"/>
									</g>
								</g>
							</g>
						</g>
					</g>
				</g>
			</g>
		</g>
		<g>
			<g>
				<path style="fill:#FF725E;" d="M325.229,158.662c0,0.144-12.859,0.26-28.718,0.26c-15.864,0-28.721-0.117-28.721-0.26
					s12.856-0.26,28.721-0.26C312.37,158.402,325.229,158.518,325.229,158.662z"/>
			</g>
			<g>
				<path style="fill:#263238;" d="M412.055,177.927c0,0.144-32.297,0.26-72.129,0.26c-39.846,0-72.136-0.117-72.136-0.26
					c0-0.144,32.29-0.26,72.136-0.26C379.758,177.666,412.055,177.783,412.055,177.927z"/>
			</g>
			<g>
				<path style="fill:#263238;" d="M412.055,190.486c0,0.144-32.297,0.26-72.129,0.26c-39.846,0-72.136-0.117-72.136-0.26
					c0-0.144,32.29-0.26,72.136-0.26C379.758,190.225,412.055,190.342,412.055,190.486z"/>
			</g>
			<g>
				<path style="fill:#263238;" d="M412.055,203.045c0,0.144-32.297,0.26-72.129,0.26c-39.846,0-72.136-0.117-72.136-0.26
					c0-0.144,32.29-0.26,72.136-0.26C379.758,202.784,412.055,202.901,412.055,203.045z"/>
			</g>
			<g>
				<path style="fill:#263238;" d="M412.055,215.604c0,0.144-32.297,0.26-72.129,0.26c-39.846,0-72.136-0.117-72.136-0.26
					s32.29-0.26,72.136-0.26C379.758,215.343,412.055,215.46,412.055,215.604z"/>
			</g>
			<g>
				<path style="fill:#263238;" d="M412.055,228.163c0,0.144-32.297,0.26-72.129,0.26c-39.846,0-72.136-0.117-72.136-0.26
					s32.29-0.26,72.136-0.26C379.758,227.902,412.055,228.019,412.055,228.163z"/>
			</g>
			<g>
				<path style="fill:#263238;" d="M412.055,240.722c0,0.144-32.297,0.26-72.129,0.26c-39.846,0-72.136-0.117-72.136-0.26
					s32.29-0.26,72.136-0.26C379.758,240.461,412.055,240.578,412.055,240.722z"/>
			</g>
			<g>
				<path style="fill:#263238;" d="M412.055,251.394c0,0.144-32.297,0.26-72.129,0.26c-39.846,0-72.136-0.117-72.136-0.26
					c0-0.144,32.29-0.26,72.136-0.26C379.758,251.133,412.055,251.25,412.055,251.394z"/>
			</g>
		</g>
		<g>
			<path style="fill:#263238;" d="M65.439,53.6c1.062-0.001,37.778-0.052,103.341-0.144l0.142,0l0.002,0.142
				c0.117,9.397,0.241,19.371,0.372,29.889l-0.161-0.159c71.173-0.021,168.913-0.051,281.667-0.085l0.246,0v0.246
				c0.005,62.748,0.009,131.364,0.014,202.811v0.26h-0.26c-0.046,0-0.096,0-0.146,0c-146.52-0.022-281.113-0.042-385.216-0.057
				h-0.203l0-0.203C65.36,143.741,65.438,55.242,65.439,53.6c0.001,1.64,0.079,90.141,0.203,232.7l-0.203-0.203
				c104.103-0.016,238.696-0.035,385.216-0.057c0.05,0,0.1,0,0.146,0l-0.26,0.26c0.005-71.447,0.01-140.062,0.015-202.811
				l0.246,0.246c-112.754-0.034-210.493-0.064-281.667-0.085l-0.159,0l-0.002-0.159c-0.119-10.518-0.231-20.492-0.337-29.889
				l0.144,0.142C103.217,53.653,66.5,53.602,65.439,53.6z"/>
		</g>
		<g>
			<path style="fill:#263238;" d="M136.194,115.717c0,0.144-11.21,0.261-25.035,0.261c-13.829,0-25.037-0.117-25.037-0.261
				c0-0.144,11.207-0.26,25.037-0.26C124.984,115.456,136.194,115.573,136.194,115.717z"/>
		</g>
		<g>
			<path style="fill:#263238;" d="M157.252,127.416c-0.144,0-0.26-4.924-0.26-10.997c0-6.075,0.117-10.997,0.26-10.997
				s0.26,4.923,0.26,10.997C157.513,122.492,157.396,127.416,157.252,127.416z"/>
		</g>
		<g>
			<path style="fill:#263238;" d="M227.914,116.653c0,0.144-10.057,0.26-22.461,0.26c-12.408,0-22.463-0.117-22.463-0.26
				c0-0.144,10.055-0.26,22.463-0.26C217.856,116.392,227.914,116.509,227.914,116.653z"/>
		</g>
		<g>
			<path style="fill:#263238;" d="M439.431,116.185c0,0.144-12.258,0.26-27.374,0.26c-15.122,0-27.377-0.117-27.377-0.26
				c0-0.144,12.255-0.26,27.377-0.26C427.173,115.924,439.431,116.041,439.431,116.185z"/>
		</g>
		<g>
			<path style="fill:#263238;" d="M323.377,116.653c0,0.144-10.057,0.26-22.461,0.26c-12.408,0-22.463-0.117-22.463-0.26
				c0-0.144,10.055-0.26,22.463-0.26C313.32,116.392,323.377,116.509,323.377,116.653z"/>
		</g>
		<g>
			<path style="fill:#263238;" d="M450.802,127.36c0,0-0.575,0.022-1.693,0.033c-1.129,0.007-2.785,0.018-4.947,0.032
				c-4.349,0.014-10.72,0.033-18.857,0.059c-16.3,0.022-39.668,0.053-67.991,0.091l-0.214,0l0-0.215
				c-0.005-7.191-0.011-14.801-0.017-22.7l0.231,0.231c-29.296,0.009-63.21,0.019-99.183,0.03c-3.007,0-6,0-8.969,0l0.26-0.26
				c-0.001,7.751-0.002,15.357-0.003,22.7l0,0.258l-0.258,0c-52.04-0.035-97.965-0.065-130.894-0.087
				c-16.453-0.033-29.656-0.06-38.759-0.078c-4.538-0.02-8.052-0.035-10.444-0.045c-1.183-0.01-2.086-0.018-2.705-0.024
				c-0.609-0.008-0.92-0.024-0.92-0.024s0.311-0.016,0.92-0.024c0.62-0.006,1.523-0.013,2.705-0.024
				c2.392-0.01,5.906-0.025,10.444-0.045c9.103-0.018,22.306-0.045,38.759-0.078c32.929-0.022,78.855-0.052,130.894-0.087
				l-0.257,0.257c-0.001-7.344-0.002-14.949-0.003-22.7l0-0.26h0.26c2.969,0,5.962,0,8.969,0c35.973,0.011,69.887,0.021,99.183,0.03
				l0.231,0l0,0.231c-0.006,7.9-0.011,15.509-0.017,22.7l-0.214-0.214c28.323,0.038,51.691,0.069,67.991,0.091
				c8.137,0.025,14.508,0.045,18.857,0.058c2.161,0.014,3.818,0.024,4.947,0.032C450.226,127.338,450.802,127.36,450.802,127.36z"/>
		</g>
	</g>
	<g>
		<polygon style="fill:#263238;" points="428.801,157.152 438.397,185.887 441.84,177.031 453.667,190.39 458.122,186.411 
			446.294,173.051 455.115,170.432 		"/>
		<g>
			<path style="fill:#263238;" d="M424.036,158.537c0.002,0.144-3.188,0.315-7.126,0.382c-3.939,0.067-7.133,0.005-7.136-0.139
				c-0.003-0.144,3.188-0.315,7.127-0.382C420.839,158.331,424.034,158.393,424.036,158.537z"/>
		</g>
		<g>
			<path style="fill:#263238;" d="M427.225,154.977c-0.044,0.057-0.988-0.552-2.479-1.582c-1.491-1.03-3.527-2.48-5.758-4.108
				c-2.231-1.628-4.233-3.126-5.668-4.232s-2.302-1.82-2.262-1.879c0.041-0.059,0.982,0.548,2.473,1.577s3.53,2.482,5.764,4.113
				c2.233,1.63,4.238,3.13,5.673,4.235C426.404,154.208,427.269,154.92,427.225,154.977z"/>
		</g>
		<g>
			<path style="fill:#263238;" d="M430.682,152.328c-0.145,0.007-0.366-2.2-0.564-4.921c-0.084-1.213-0.162-2.328-0.242-3.482
				c-0.049-0.903-0.142-1.402-0.098-1.441c0.255-0.075,0.682,2.162,0.859,4.884C430.836,150.099,430.824,152.321,430.682,152.328z"
				/>
		</g>
	</g>
</g>
<g id="Character">
	<g>
		<g>
			<g>
				<g>
					<g>
						<g>
							<g>
								<g>
									<g>
										<g>
											<g>
												<g>
													<g>
														<path style="fill:#FF725E;" d="M196.594,452.454v20.17l40.673-0.197c-0.295-4.09-22.618-12.25-22.618-12.25
															l0.444-7.723H196.594z"/>
													</g>
												</g>
											</g>
										</g>
									</g>
								</g>
							</g>
						</g>
					</g>
					<g style="opacity:0.6;">
						<g>
							<g>
								<g>
									<g>
										<g>
											<g>
												<g>
													<g>
														<g>
															<path style="fill:#FFFFFF;" d="M203.173,458.352c-0.78,0.239-1.307,1.179-1.114,2.015
																c0.194,0.835,1.093,1.413,1.876,1.189c0.784-0.224,1.45-1.333,1.169-2.14c-0.281-0.807-1.372-1.424-2.081-1.008"/>
														</g>
													</g>
												</g>
											</g>
										</g>
									</g>
								</g>
							</g>
						</g>
					</g>
					<g>
						<g>
							<g>
								<g>
									<g>
										<g>
											<g>
												<g>
													<g>
														<path style="fill:#263238;" d="M196.594,472.624v-3.222l38.832,0.459c0,0,2.025,1.219,1.84,2.565L196.594,472.624z"/>
													</g>
												</g>
											</g>
										</g>
									</g>
								</g>
							</g>
						</g>
					</g>
					<g>
						<g>
							<g>
								<g>
									<g>
										<g>
											<g>
												<g>
													<g>
														<g>
															<path style="fill:#263238;" d="M214.648,460.567c-0.003,0.21-0.99,0.319-1.952,1.007
																c-0.98,0.661-1.468,1.575-1.65,1.495c-0.183-0.038,0.094-1.293,1.273-2.104
																C213.49,460.143,214.688,460.375,214.648,460.567z"/>
														</g>
													</g>
												</g>
											</g>
										</g>
									</g>
								</g>
							</g>
						</g>
					</g>
					<g>
						<g>
							<g>
								<g>
									<g>
										<g>
											<g>
												<g>
													<g>
														<g>
															<path style="fill:#263238;" d="M219.977,462.433c0.048,0.202-0.803,0.571-1.461,1.466
																c-0.683,0.874-0.839,1.834-1.036,1.828c-0.185,0.036-0.339-1.188,0.499-2.284
																C218.809,462.339,219.97,462.234,219.977,462.433z"/>
														</g>
													</g>
												</g>
											</g>
										</g>
									</g>
								</g>
							</g>
						</g>
					</g>
					<g>
						<g>
							<g>
								<g>
									<g>
										<g>
											<g>
												<g>
													<g>
														<g>
															<path style="fill:#263238;" d="M222.374,467.574c-0.179,0.048-0.469-0.994,0.022-2.148
																c0.483-1.158,1.408-1.624,1.495-1.451c0.114,0.171-0.477,0.794-0.867,1.748
																C222.614,466.667,222.57,467.55,222.374,467.574z"/>
														</g>
													</g>
												</g>
											</g>
										</g>
									</g>
								</g>
							</g>
						</g>
					</g>
					<g>
						<g>
							<g>
								<g>
									<g>
										<g>
											<g>
												<g>
													<g>
														<g>
															<path style="fill:#263238;" d="M214.253,454.832c-0.08,0.192-0.991-0.083-2.106,0.014
																c-1.118,0.073-1.981,0.484-2.086,0.306c-0.117-0.149,0.721-0.937,2.036-1.032
																C213.411,454.014,214.348,454.666,214.253,454.832z"/>
														</g>
													</g>
												</g>
											</g>
										</g>
									</g>
								</g>
							</g>
						</g>
					</g>
				</g>
			</g>
		</g>
		<g>
			<g>
				<g>
					<path style="fill:#263238;" d="M214.479,461.47c0.03,0.004,0.133-0.43,0.087-1.232c-0.058-0.791-0.3-1.973-1.077-3.18
						c-0.393-0.594-0.907-1.189-1.591-1.675c-0.331-0.231-0.846-0.485-1.373-0.24c-0.494,0.237-0.773,0.79-0.801,1.328
						c0.052,2.076,1.542,3.991,3.574,4.719c2.084,0.729,4.287-0.171,5.493-1.631c0.296-0.372,0.58-0.749,0.729-1.245
						c0.069-0.242,0.102-0.528,0.006-0.807c-0.092-0.274-0.31-0.493-0.553-0.583c-0.491-0.168-0.908-0.02-1.268,0.125
						c-0.353,0.17-0.656,0.345-0.947,0.539c-1.154,0.769-1.89,1.657-2.325,2.301c-0.437,0.65-0.589,1.064-0.561,1.08
						c0.091,0.093,0.842-1.592,3.097-3.01c0.544-0.312,1.257-0.761,1.833-0.561c0.252,0.104,0.352,0.4,0.232,0.754
						c-0.107,0.348-0.367,0.7-0.639,1.027c-1.101,1.29-3.091,2.074-4.918,1.426c-1.805-0.607-3.166-2.441-3.22-4.099
						c0.009-0.384,0.208-0.737,0.479-0.873c0.26-0.139,0.602-0.022,0.906,0.18c0.625,0.418,1.129,0.959,1.514,1.497
						c0.77,1.098,1.063,2.201,1.186,2.955C214.455,461.029,214.43,461.467,214.479,461.47z"/>
				</g>
			</g>
		</g>
		<g>
			<g>
				<g>
					<g>
						<g>
							<g>
								<polygon style="fill:#FF725E;" points="181.73,455.375 182.419,460.564 181.958,472.271 166.71,472.643 166.166,460.564 
									167.901,453.39 								"/>
							</g>
						</g>
					</g>
				</g>
			</g>
		</g>
		<g>
			<g>
				<g>
					<g>
						<g>
							<g>
								<g>
									<path style="fill:#263238;" d="M174.419,471.389c-0.093,0.005,0.127-3.576,0.49-7.997c0.363-4.423,0.733-8.01,0.826-8.015
										c0.093-0.005-0.127,3.576-0.49,7.998C174.882,467.796,174.512,471.385,174.419,471.389z"/>
								</g>
							</g>
						</g>
					</g>
				</g>
			</g>
		</g>
		<g>
			<g>
				<g>
					<g>
						<g>
							<g>
								<polygon style="fill:#263238;" points="182.019,470.322 166.613,470.501 166.613,472.643 182.03,472.624 								"/>
							</g>
						</g>
					</g>
				</g>
			</g>
		</g>
		<g>
			<g>
				<g>
					<g>
						<g>
							<g>
								<g>
									<path style="fill:#263238;" d="M166.651,463.592c-0.023-0.018,0.107-0.243,0.39-0.618c0.283-0.375,0.732-0.89,1.359-1.454
										c0.628-0.561,1.444-1.171,2.462-1.653c1.009-0.49,2.239-0.836,3.554-0.824c2.637,0.004,4.856,1.295,5.948,2.582
										c0.567,0.635,0.917,1.232,1.117,1.658c0.196,0.429,0.269,0.68,0.243,0.69c-0.083,0.046-0.451-0.953-1.597-2.124
										c-1.109-1.176-3.213-2.339-5.716-2.345c-2.495-0.013-4.55,1.247-5.8,2.264
										C167.336,462.809,166.715,463.645,166.651,463.592z"/>
								</g>
							</g>
						</g>
					</g>
				</g>
			</g>
		</g>
		<g>
			<g>
				<g>
					<g>
						<g>
							<g>
								<path style="fill:#FFBE9D;" d="M174.354,128.718l-0.161,52.72l22.618,1.079l0.654-12.823c0,0,8.034,1.595,10.106-5.866
									c1.324-4.766,0.993-41.599,0.993-41.599L174.354,128.718z"/>
							</g>
						</g>
					</g>
				</g>
			</g>
			<g>
				<g>
					<g>
						<g>
							<g>
								<path style="fill:#263238;" d="M211.54,125.942c-3.563,1.02-4.336,6.842-4.336,6.842l-5.588,12.342
									c-2.847-2.229-6.669-2.101-7.393,2.901c-0.523,3.615,3.972,4.346,3.972,4.346c-2.617,4.452-4.391,8.054-8.2,12.289
									c-4.123,4.584-6.433,5.046-10.904,5.12h-4.931c0,0-2.414-7.834-6.883-27.427c-4.959-21.737,20.745-18.937,25.51-24.485
									C200.547,108.834,222.771,122.727,211.54,125.942z"/>
							</g>
						</g>
					</g>
				</g>
			</g>
			<g>
				<g>
					<path style="fill:#263238;" d="M167.746,144.404c-4.167-2.799-4.543-10.629-2.112-15.325c2.431-4.696,7.547-7.877,12.833-7.98
						c0.707-0.014,1.437,0.02,2.096-0.235c0.979-0.378,1.612-1.305,2.251-2.136c3.723-4.842,7.383-9.598,14.323-9.597
						c1.128,0,2.374,0,4.363,1.082c0.991,0.539,2.387,2.366,2.621,3.469c1.304-0.618,2.632-1.244,4.059-1.46
						c1.427-0.216,2.994,0.033,4.073,0.993c1.078,0.96,1.478,2.726,0.64,3.901c2.339-0.148,4.556,1.788,4.924,4.103
						c0.368,2.315-2.949,3.942-3.294,4.122c0,0,1.821,3.811-2.52,6.096c-1.748,0.92-4.021-0.188-4.279-0.322"/>
				</g>
			</g>
			<g>
				<g>
					<g>
						<path style="fill:#455A64;" d="M184.26,149.474c0.146-0.015,0.37,1.814-0.129,4.003c-0.487,2.193-1.473,3.749-1.599,3.672
							c-0.151-0.076,0.574-1.691,1.04-3.798C184.054,151.248,184.091,149.477,184.26,149.474z"/>
					</g>
				</g>
			</g>
			<g>
				<g>
					<g>
						<path style="fill:#455A64;" d="M186.995,146.887c0.153,0.007,0.186,1.75-0.21,3.854c-0.389,2.106-1.049,3.72-1.194,3.671
							c-0.156-0.049,0.249-1.711,0.631-3.776C186.611,148.573,186.832,146.876,186.995,146.887z"/>
					</g>
				</g>
			</g>
			<g>
				<g>
					<g>
						<path style="fill:#455A64;" d="M194.83,138.186c0.054,0.076-0.586,0.543-1.4,1.496c-0.82,0.943-1.754,2.418-2.437,4.207
							c-0.684,1.79-1.061,3.505-1.351,4.742c-0.284,1.24-0.48,2.008-0.56,1.994c-0.076-0.013-0.022-0.802,0.162-2.069
							c0.191-1.262,0.508-3.022,1.215-4.872c0.706-1.852,1.743-3.368,2.674-4.276C194.059,138.485,194.797,138.13,194.83,138.186z"
							/>
					</g>
				</g>
			</g>
			<g>
				<g>
					<g>
						<path style="fill:#455A64;" d="M197.997,132.262c0.066-0.018,0.298,0.51,0.439,1.427c0.143,0.912,0.147,2.219-0.196,3.599
							c-0.348,1.38-0.969,2.53-1.525,3.267c-0.557,0.742-1.01,1.098-1.06,1.051c-0.142-0.109,1.389-1.81,2.029-4.457
							C198.368,134.514,197.821,132.291,197.997,132.262z"/>
					</g>
				</g>
			</g>
			<g>
				<g>
					<g>
						<path style="fill:#455A64;" d="M171.002,145.429c-0.077,0.138-0.77-0.102-1.547-0.536c-0.777-0.434-1.345-0.898-1.267-1.036
							c0.077-0.138,0.77,0.102,1.547,0.536C170.512,144.827,171.079,145.291,171.002,145.429z"/>
					</g>
				</g>
			</g>
			<g>
				<g>
					<g>
						<path style="fill:#455A64;" d="M181.93,139.8c0.149,0.022,0.057,1.139-0.646,2.293c-0.695,1.16-1.641,1.761-1.73,1.639
							c-0.107-0.126,0.604-0.87,1.239-1.936C181.441,140.739,181.768,139.764,181.93,139.8z"/>
					</g>
				</g>
			</g>
			<g>
				<g>
					<g>
						<path style="fill:#455A64;" d="M185.29,137.996c0.146,0.033-0.091,1.371-1.007,2.74c-0.907,1.376-2.048,2.115-2.134,1.993
							c-0.107-0.128,0.808-1.017,1.657-2.309C184.667,139.136,185.13,137.947,185.29,137.996z"/>
					</g>
				</g>
			</g>
			<g>
				<g>
					<g>
						<path style="fill:#455A64;" d="M201.992,115.916c-0.04,0.045-0.424-0.322-1.24-0.786c-0.816-0.448-2.119-0.938-3.79-0.98
							c-1.655-0.052-3.687,0.342-5.56,1.494c-1.874,1.15-3.532,3.023-4.736,5.275c-0.877,1.637-1.484,3.341-1.922,4.943
							l-0.091,0.332l-0.304-0.16c-1.679-0.882-3.458-1.27-5.046-1.291c-1.595-0.044-2.998,0.249-4.108,0.62
							c-2.235,0.764-3.296,1.768-3.354,1.677c-0.017-0.02,0.234-0.272,0.757-0.67c0.526-0.391,1.351-0.899,2.481-1.332
							c1.127-0.428,2.571-0.775,4.23-0.765c1.651-0.013,3.52,0.361,5.299,1.276l-0.394,0.172c0.432-1.638,1.044-3.387,1.948-5.074
							c1.242-2.323,2.979-4.271,4.967-5.455c1.992-1.188,4.125-1.553,5.851-1.447c1.742,0.096,3.081,0.671,3.886,1.193
							c0.397,0.278,0.695,0.502,0.869,0.689C201.917,115.803,202.005,115.902,201.992,115.916z"/>
					</g>
				</g>
			</g>
			<g>
				<g>
					<g>
						<path style="fill:#455A64;" d="M213.886,118.785c-0.04-0.01,0.629-0.169,1.298,0.588c0.305,0.365,0.586,0.94,0.52,1.651
							c-0.069,0.709-0.559,1.441-1.315,1.878c-0.744,0.456-1.763,0.608-2.748,0.378c-0.991-0.216-1.943-0.741-2.835-1.374
							c-0.899-0.628-1.763-1.36-2.773-1.9c-1.008-0.547-2.143-0.947-3.342-1.175c-2.408-0.449-4.799-0.178-6.819,0.467
							c-2.031,0.651-3.718,1.63-5.041,2.562c-2.64,1.899-3.943,3.488-4.024,3.405c-0.026-0.023,0.275-0.433,0.895-1.114
							c0.625-0.673,1.569-1.623,2.891-2.618c1.317-0.992,3.025-2.035,5.116-2.737c2.084-0.697,4.569-0.997,7.089-0.528
							c1.255,0.239,2.447,0.662,3.506,1.246c1.069,0.583,1.943,1.341,2.809,1.962c0.859,0.628,1.74,1.126,2.635,1.341
							c0.891,0.225,1.768,0.113,2.44-0.266c0.676-0.362,1.114-0.98,1.198-1.566c0.086-0.596-0.128-1.128-0.378-1.473
							C214.471,118.792,213.856,118.849,213.886,118.785z"/>
					</g>
				</g>
			</g>
		</g>
		<g>
			<path style="fill:#FFBE9D;" d="M281.604,143.818l-18.44,37.064l-43.49,2.216l1.785,24.001c0,0,48.476-3.218,53.358-8.956
				c5.306-6.236,17.88-44.497,17.895-44.616c0.002-0.016,1.517-4.481,1.502-4.487L281.604,143.818z"/>
			<g>
				<g>
					<g>
						<path style="fill:#FFBE9D;" d="M279.181,149.374l3.729-8.089c1.478-5.117,6.332-14.902,6.332-14.902s8.315-9.321,9.412-9.004
							c1.097,0.317,1.648,1.426,0.525,2.844c-1.122,1.419-5.198,8.4-5.198,8.4s2.33,0.435,2.608,1.941
							c0.278,1.506-0.095,2.296-0.095,2.296s2.188,0.605,2.906,1.684c0.718,1.079,0.903,2.083,0.903,2.083s1.202-0.049,1.647,1.426
							c0.445,1.475,0.358,2.876,0.358,2.876s-2.909,4.863-4.323,5.643c-1.413,0.78-3.314,1.732-3.314,1.732l-3.075,8.197"/>
					</g>
				</g>
			</g>
		</g>
		<g>
			<path style="fill:#263238;" d="M225.593,388.947c0.133-1.476,0.208-2.611,0.208-3.321l4.54-72.481c0,0-3.817-21.166-5.621-26.783
				l-16.231-6.283l-21.621,8.422c-0.144-1.745-0.231-2.815-0.231-2.815l-31.848,11.008c0,0-0.824,21.727,0,28.34
				c0.265,2.124,1.098,7.613,2.107,14.08h0c0,0,1.025,14.055,1.237,14.84c0.772,2.865,0.95,9.883,0.95,16.914
				c0,8.937,0.485,19.57,1.042,24.625c0.557,5.055,0.828,60.639,0.828,60.639h23.499l3.018-88.537
				c0.506-9.488,1.266-23.998,1.754-34.494l5.52,32.69c0,1.199,3.358,19.889,3.358,19.889s-1.229,8.769-1.44,17.734
				c-0.388,16.478-2.325,52.718-2.325,52.718h23.004l0,0C217.341,456.131,224.249,403.799,225.593,388.947L225.593,388.947
				L225.593,388.947z"/>
			<path style="fill:#455A64;" d="M229.552,308.8c-0.03,0.053-0.865-0.334-2.12-1.13c-1.255-0.793-2.911-2.025-4.545-3.603
				c-1.632-1.582-2.917-3.197-3.751-4.424c-0.836-1.228-1.251-2.05-1.199-2.081c0.065-0.041,0.583,0.712,1.483,1.874
				c0.898,1.163,2.206,2.716,3.813,4.275c1.61,1.554,3.205,2.81,4.397,3.669C228.821,308.241,229.59,308.734,229.552,308.8z"/>
			<path style="fill:#455A64;" d="M186.941,317.546c-0.031,0.015-0.189-0.242-0.45-0.723c-0.266-0.478-0.607-1.192-0.989-2.093
				c-0.767-1.798-1.623-4.383-2.14-7.331c-0.51-2.95-0.579-5.672-0.465-7.624c0.055-0.976,0.134-1.764,0.223-2.304
				c0.083-0.54,0.145-0.836,0.179-0.832c0.081,0.009-0.031,1.209-0.052,3.147c-0.023,1.937,0.1,4.617,0.604,7.527
				c0.51,2.909,1.301,5.472,1.978,7.287C186.502,316.418,187.014,317.509,186.941,317.546z"/>
			<g>
				<path style="fill:#455A64;" d="M191.953,349.263c-0.036,0.006-0.141-0.444-0.303-1.261c-0.169-0.922-0.382-2.084-0.636-3.469
					c-0.512-3.042-1.185-7.045-1.929-11.47c-1.299-8.131-2.184-13.667-2.595-16.241c0.107-0.041,0.564,1.774,1.111,4.694
					c0.56,2.926,1.266,6.979,1.999,11.463c0.733,4.483,1.355,8.549,1.778,11.496c0.189,1.395,0.347,2.566,0.473,3.495
					C191.951,348.797,191.989,349.258,191.953,349.263z"/>
			</g>
		</g>
		<g>
			<path style="fill:#FFBE9D;" d="M136.493,228.749c0,0-3.105,21.845-3.684,29.5c-0.349,4.608,4.331,10.726,7.904,11.174
				c3.629,0.455,15.619,1.164,15.619,1.164l0.999-13.701l-0.312-2.725l-3.739-0.704l0.465-22.051L136.493,228.749z"/>
			<g>
				<path style="fill:#EB996E;" d="M153.914,232.083c0.036-0.001,0.084,0.421,0.139,1.187c0.058,0.766,0.106,1.876,0.134,3.248
					c0.062,2.745-0.001,6.539-0.236,10.718c-0.235,4.181-0.568,7.956-0.84,10.685c-0.136,1.364-0.259,2.467-0.355,3.228
					c-0.096,0.761-0.167,1.18-0.203,1.177c-0.036-0.003-0.034-0.428,0.001-1.194c0.051-0.874,0.115-1.958,0.19-3.241
					c0.183-2.85,0.422-6.569,0.687-10.683c0.235-4.171,0.356-7.951,0.388-10.688c0.013-1.284,0.023-2.368,0.032-3.243
					C153.857,232.51,153.878,232.085,153.914,232.083z"/>
			</g>
		</g>
		<g>
			<path style="fill:#455A64;" d="M247.121,180.879c0.617-0.16-32.841-3.581-32.841-3.581c-9.065-1.058-16.395-0.717-16.395-0.717
				h-22.829c0,0-27.666,8.16-32.232,15.68l-11.858,35.547l23.439,3.541l0,0l2.924,25.537c0,0-2.909,29.571-2.909,33.869
				c0,4.297,0.366,5.938,0.366,5.938s46.453-10.448,58.002-6.688c11.549,3.76,14.939,4.79,14.939,4.79s-0.787-10.376-1.643-17.497
				l-2.677-35.635l-2.118-29.136l25.838-2.982L247.121,180.879z"/>
			<path style="fill:#263238;" d="M153.562,232.223c-0.08,0.01-0.294-1.506-0.781-3.924c-0.488-2.417-1.293-5.732-2.533-9.283
				c-1.241-3.552-2.659-6.655-3.756-8.865c-0.52-1.027-0.962-1.898-1.322-2.609c-0.316-0.615-0.477-0.964-0.447-0.981
				c0.03-0.017,0.247,0.299,0.615,0.886c0.372,0.585,0.876,1.453,1.466,2.543c1.182,2.178,2.663,5.283,3.913,8.863
				c1.25,3.579,2.008,6.937,2.41,9.383c0.199,1.224,0.33,2.219,0.388,2.911C153.577,231.836,153.596,232.219,153.562,232.223z"/>
			<path style="fill:#263238;" d="M198.428,241.72c0.016,0.006-0.026,0.167-0.121,0.469c-0.119,0.355-0.264,0.788-0.44,1.314
				c-0.191,0.571-0.438,1.264-0.761,2.056c-0.318,0.793-0.657,1.707-1.105,2.686c-0.844,1.981-1.967,4.289-3.324,6.793
				c-1.381,2.49-3.009,5.169-4.886,7.869c-1.894,2.689-3.853,5.138-5.72,7.288c-1.888,2.133-3.672,3.979-5.243,5.451
				c-0.766,0.756-1.509,1.388-2.145,1.958c-0.633,0.574-1.2,1.043-1.671,1.419c-0.433,0.345-0.791,0.63-1.084,0.863
				c-0.251,0.193-0.388,0.288-0.399,0.275c-0.011-0.013,0.105-0.134,0.335-0.351c0.276-0.252,0.613-0.56,1.022-0.932
				c0.45-0.397,0.997-0.886,1.611-1.478c0.617-0.588,1.339-1.236,2.087-2.005c1.534-1.498,3.283-3.36,5.142-5.499
				c1.838-2.156,3.775-4.599,5.659-7.273c1.866-2.685,3.497-5.341,4.893-7.806c1.371-2.479,2.522-4.76,3.404-6.714
				c0.466-0.966,0.827-1.867,1.169-2.648c0.346-0.779,0.618-1.461,0.837-2.02c0.21-0.512,0.384-0.934,0.526-1.279
				C198.338,241.865,198.412,241.715,198.428,241.72z"/>
			<path style="opacity:0.3;" d="M181.165,256.216c-2.501,3.966-4.865,8.8-6.466,13.207c7.306-5.946,13.137-13.69,16.831-22.355
				C187.152,248.747,183.666,252.25,181.165,256.216z"/>
			<g>
				<path style="fill:#FFFFFF;" d="M214.865,200.365c-0.001,0.018-0.249,0.021-0.719,0.009c-0.521-0.019-1.204-0.043-2.054-0.074
					c-1.782-0.082-4.363-0.178-7.551-0.266c-6.376-0.18-15.191-0.228-24.913,0.203c-9.725,0.44-18.501,1.277-24.836,2.026
					c-3.167,0.373-5.729,0.698-7.496,0.94c-0.844,0.107-1.521,0.192-2.039,0.258c-0.467,0.053-0.714,0.073-0.717,0.055
					c-0.003-0.018,0.238-0.072,0.7-0.158c0.514-0.09,1.187-0.208,2.025-0.354c1.76-0.303,4.315-0.685,7.481-1.105
					c6.33-0.844,15.117-1.74,24.858-2.181c9.738-0.432,18.569-0.325,24.949-0.051c3.19,0.135,5.77,0.287,7.55,0.431
					c0.848,0.071,1.529,0.128,2.049,0.172C214.622,200.315,214.867,200.347,214.865,200.365z"/>
			</g>
			<g>
				<path style="fill:#FFFFFF;" d="M214.029,179.653c0,0.018-0.209,0.032-0.605,0.043c-0.453,0.006-1.027,0.013-1.734,0.022
					c-1.505,0.001-3.683,0.023-6.373,0.072c-5.38,0.096-12.807,0.407-20.989,1.081c-8.184,0.679-15.571,1.537-20.916,2.172
					c-2.622,0.311-4.768,0.566-6.331,0.751c-0.703,0.076-1.274,0.137-1.724,0.185c-0.395,0.037-0.604,0.047-0.606,0.03
					c-0.003-0.018,0.201-0.063,0.592-0.133c0.447-0.074,1.013-0.167,1.711-0.282c1.487-0.235,3.643-0.551,6.311-0.916
					c5.336-0.729,12.724-1.645,20.92-2.325c8.194-0.675,15.64-0.928,21.027-0.93c2.694-0.002,4.874,0.032,6.38,0.094
					c0.707,0.031,1.281,0.056,1.733,0.076C213.822,179.614,214.029,179.635,214.029,179.653z"/>
			</g>
			<g>
				<path style="fill:#FFFFFF;" d="M228.816,210.514c-0.03,0.02-0.295-0.346-0.75-1.027c-0.464-0.674-1.063-1.699-1.732-3.001
					c-0.677-1.299-1.367-2.907-2.014-4.735c-0.62-1.837-1.183-3.899-1.575-6.104c-0.372-2.209-0.536-4.341-0.569-6.28
					c-0.005-1.939,0.104-3.685,0.305-5.137c0.192-1.451,0.411-2.618,0.622-3.408c0.199-0.794,0.326-1.227,0.361-1.219
					c0.097,0.021-0.329,1.779-0.617,4.668c-0.152,1.443-0.222,3.171-0.191,5.087c0.059,1.915,0.235,4.018,0.602,6.199
					c0.387,2.177,0.928,4.216,1.516,6.039c0.615,1.814,1.261,3.419,1.89,4.727C227.908,208.949,228.9,210.462,228.816,210.514z"/>
			</g>
			<g>
				<path style="fill:#FFFFFF;" d="M239.835,209.157c-0.033,0.015-0.228-0.337-0.554-0.988c-0.333-0.648-0.755-1.616-1.219-2.834
					c-0.933-2.433-1.921-5.929-2.369-9.893c-0.438-3.967-0.246-7.596,0.127-10.174c0.184-1.29,0.382-2.327,0.564-3.033
					c0.174-0.707,0.287-1.094,0.322-1.086c0.089,0.019-0.247,1.592-0.52,4.163c-0.277,2.569-0.408,6.152,0.025,10.072
					c0.443,3.917,1.362,7.383,2.198,9.827C239.242,207.659,239.918,209.119,239.835,209.157z"/>
			</g>
			<g>
				<path style="fill:#FFFFFF;" d="M151.358,221.517c-0.005,0.074-1.003,0.072-2.613,0.054c-1.794-0.022-3.931-0.049-6.293-0.078
					c-2.46-0.037-4.689-0.117-6.3-0.231c-1.611-0.113-2.603-0.245-2.598-0.314c0.005-0.074,1.003-0.072,2.613-0.054
					c1.794,0.022,3.931,0.049,6.294,0.078c2.459,0.037,4.688,0.116,6.299,0.231C150.371,221.316,151.363,221.448,151.358,221.517z"
					/>
			</g>
			<g>
				<path style="fill:#FFFFFF;" d="M143.513,207.994c-0.016,0.138-1.293,0.156-2.882,0.136c-1.593-0.02-2.888-0.237-2.871-0.385
					c0.016-0.138,1.293-0.156,2.882-0.136C142.234,207.629,143.53,207.846,143.513,207.994z"/>
			</g>
			<g>
				<path style="fill:#FFFFFF;" d="M220.897,222.809c0.003,0.144-15.098,0.592-33.726,1c-18.634,0.409-33.737,0.624-33.74,0.48
					c-0.003-0.144,15.095-0.592,33.729-1C205.788,222.88,220.894,222.665,220.897,222.809z"/>
			</g>
			<g>
				<path style="fill:#FFFFFF;" d="M195.795,246.799c0.001,0.036-0.553,0.091-1.558,0.161c-1.005,0.072-2.46,0.144-4.259,0.209
					c-3.598,0.132-8.575,0.197-14.068,0.063c-5.495-0.137-10.463-0.449-14.05-0.758c-1.794-0.154-3.244-0.298-4.243-0.419
					c-1-0.119-1.551-0.201-1.548-0.237c0.003-0.036,0.561-0.021,1.565,0.035c1.097,0.066,2.528,0.151,4.252,0.254
					c3.59,0.215,8.551,0.467,14.037,0.605c5.484,0.134,10.451,0.126,14.047,0.089c1.727-0.018,3.161-0.033,4.26-0.044
					C195.236,246.749,195.794,246.763,195.795,246.799z"/>
			</g>
			<g>
				<path style="fill:#FFFFFF;" d="M222.976,247.052c-0.006,0.073-1.398,0.024-3.644-0.091c-2.384-0.128-5.418-0.29-8.773-0.469
					c-3.357-0.172-6.391-0.328-8.775-0.451c-2.246-0.121-3.635-0.217-3.633-0.29c0.001-0.036,0.349-0.061,0.979-0.075
					c0.63-0.015,1.541-0.016,2.666-0.003c2.251,0.027,5.36,0.119,8.79,0.299c3.43,0.18,6.531,0.413,8.772,0.622
					c1.121,0.104,2.027,0.201,2.651,0.281C222.635,246.955,222.979,247.016,222.976,247.052z"/>
			</g>
			<g>
				<path style="fill:#FFFFFF;" d="M179.584,271.362c-0.002,0.144-5.217,0.192-11.646,0.108c-6.431-0.084-11.642-0.269-11.64-0.412
					s5.215-0.192,11.647-0.108C174.374,271.034,179.586,271.219,179.584,271.362z"/>
			</g>
			<g>
				<path style="fill:#FFFFFF;" d="M224.278,271.655c-0.004,0.036-0.566,0.009-1.577-0.07c-1.103-0.093-2.544-0.215-4.281-0.362
					c-3.613-0.314-8.605-0.735-14.123-1.124c-5.52-0.387-10.522-0.669-14.144-0.864c-1.74-0.098-3.184-0.179-4.289-0.241
					c-1.013-0.063-1.572-0.115-1.571-0.151c0.001-0.036,0.563-0.052,1.578-0.051c1.015,0,2.484,0.025,4.298,0.075
					c3.628,0.1,8.639,0.324,14.165,0.712c5.525,0.389,10.517,0.869,14.123,1.278c1.803,0.204,3.261,0.385,4.266,0.527
					C223.728,271.524,224.282,271.619,224.278,271.655z"/>
			</g>
			<g>
				<path style="fill:#FFFFFF;" d="M227.434,292.107c-0.01,0.015-0.236-0.117-0.655-0.38c-0.417-0.266-1.042-0.644-1.866-1.093
					c-1.642-0.902-4.115-2.062-7.34-2.987c-3.219-0.934-7.176-1.608-11.608-1.826c-4.432-0.235-9.319-0.031-14.444,0.261
					c-5.13,0.281-10.014,0.561-14.438,0.996c-4.422,0.444-8.386,1.021-11.671,1.724c-3.286,0.697-5.907,1.436-7.689,2.032
					c-0.902,0.268-1.579,0.543-2.052,0.691c-0.47,0.158-0.72,0.233-0.726,0.216c-0.007-0.017,0.23-0.124,0.689-0.314
					c0.462-0.18,1.13-0.486,2.024-0.785c1.768-0.657,4.385-1.454,7.676-2.2c3.29-0.753,7.267-1.37,11.7-1.841
					c4.435-0.462,9.327-0.757,14.457-1.038c5.127-0.292,10.037-0.483,14.499-0.22c4.461,0.246,8.452,0.964,11.686,1.952
					c3.241,0.979,5.713,2.202,7.335,3.164c0.814,0.479,1.425,0.886,1.824,1.182C227.239,291.931,227.444,292.092,227.434,292.107z"
					/>
			</g>
			<g>
				<path style="fill:#263238;" d="M214.364,179.653c0.1,0.046-1.29,1.424-1.817,4.328c-0.269,1.432-0.275,3.186,0.032,5.098
					c0.295,1.913,0.872,3.983,1.457,6.158c1.19,4.347,2.451,8.229,3.407,11.025c0.456,1.32,0.839,2.428,1.144,3.308
					c0.27,0.782,0.406,1.219,0.372,1.233c-0.033,0.013-0.233-0.4-0.562-1.16c-0.326-0.761-0.778-1.871-1.301-3.257
					c-1.047-2.77-2.368-6.649-3.562-11.011c-0.586-2.18-1.154-4.265-1.43-6.225c-0.288-1.954-0.244-3.772,0.081-5.24
					c0.314-1.473,0.87-2.58,1.335-3.273C213.994,179.943,214.345,179.634,214.364,179.653z"/>
			</g>
		</g>
	</g>
</g>
<g id="Plant">
	<g>
		<path style="fill:#455A64;" d="M405.014,271.08c-10.484,5.431-18.523,14.781-24.303,25.076
			c-5.781,10.295-9.506,21.592-13.196,32.807l-3.229,57.841c12.199-20.753,21.99-45.149,24.635-69.075
			c-2.706-0.241-5.412-0.482-8.118-0.723c5.443-0.831,10.012-4.775,12.918-9.451c2.907-4.676,4.403-10.068,5.863-15.377
			c-3.301,0.491-6.603,0.982-9.904,1.472C397.436,288.473,403.059,280.197,405.014,271.08z"/>
		<g style="opacity:0.3;">
			<path d="M405.014,271.08c-10.484,5.431-18.523,14.781-24.303,25.076c-5.781,10.295-9.506,21.592-13.196,32.807l-3.229,57.841
				c12.199-20.753,21.99-45.149,24.635-69.075c-2.706-0.241-5.412-0.482-8.118-0.723c5.443-0.831,10.012-4.775,12.918-9.451
				c2.907-4.676,4.403-10.068,5.863-15.377c-3.301,0.491-6.603,0.982-9.904,1.472C397.436,288.473,403.059,280.197,405.014,271.08z"
				/>
		</g>
		<path style="fill:#455A64;" d="M362.479,400.356c0,0-26.477-31.691-26.172-61.945h10.696c0,0-11.618-7.64-10.698-11.918
			c0.919-4.278,1.225-20.475,1.225-20.475l9.779,2.445c0,0-7.334-3.667-8.251-9.473c-0.917-5.806,2.139-32.698,2.139-32.698
			s11.918,12.529,15.585,25.364c3.667,12.835,13.293,27.809,10.466,66.924C364.422,397.696,362.479,400.356,362.479,400.356z"/>
		<path style="fill:#455A64;" d="M375.902,403.348c0,0,28.686-19.11,35.059-43.499l-8.599-2.34c0,0,11.012-3.6,11.209-7.241
			c0.197-3.641,3.495-16.729,3.495-16.729l-8.397-0.174c0,0,6.699-1.344,8.706-5.811c2.007-4.467,5.434-26.757,5.434-26.757
			s-12.323,7.466-18.079,16.982s-16.771,19.449-23.057,51.516S375.902,403.348,375.902,403.348z"/>
		<g>
			<path style="fill:#263238;" d="M348.43,293.923c0.009-0.002,0.041,0.109,0.096,0.328c0.059,0.246,0.135,0.568,0.232,0.975
				c0.2,0.892,0.482,2.152,0.842,3.76c0.368,1.633,0.795,3.635,1.259,5.966c0.472,2.33,1.022,4.98,1.559,7.924
				c1.135,5.876,2.332,12.901,3.565,20.716c1.195,7.822,2.387,16.439,3.447,25.509c1.038,9.075,1.843,17.74,2.465,25.629
				c0.583,7.892,1.02,15.005,1.256,20.985c0.148,2.988,0.217,5.694,0.29,8.07c0.081,2.375,0.121,4.422,0.135,6.095
				c0.016,1.647,0.029,2.939,0.038,3.853c-0.001,0.418-0.002,0.749-0.003,1.002c-0.004,0.226-0.01,0.342-0.019,0.342
				c-0.009,0-0.02-0.115-0.034-0.341c-0.012-0.253-0.028-0.583-0.048-1.001c-0.032-0.913-0.078-2.204-0.135-3.85
				c-0.046-1.672-0.116-3.717-0.224-6.09c-0.1-2.374-0.195-5.077-0.367-8.063c-0.282-5.974-0.757-13.08-1.366-20.965
				c-0.647-7.881-1.467-16.538-2.504-25.606c-1.059-9.063-2.236-17.676-3.404-25.496c-1.206-7.814-2.365-14.841-3.453-20.722
				c-0.514-2.946-1.038-5.6-1.483-7.934c-0.436-2.336-0.835-4.343-1.172-5.981c-0.319-1.616-0.57-2.883-0.747-3.78
				c-0.076-0.411-0.136-0.737-0.181-0.986C348.436,294.04,348.421,293.925,348.43,293.923z"/>
		</g>
		<path style="fill:#455A64;" d="M358.807,419.763c0,0-24.23-27.492-31.753-44.112l5.68-2.427c-4.117,0.679-8.335-1.09-11.527-3.777
			c-3.192-2.687-5.536-6.221-7.835-9.703l7.482-1.264c-6.804-1.909-12.798-6.553-16.348-12.663
			c8.829,1.452,16.817,6.302,23.399,12.363c5.331,4.909,9.844,10.607,14.179,16.429c2.115,2.84,3.965,5.866,5.507,9.053
			C351.661,392.079,358.821,409.666,358.807,419.763z"/>
		<g>
			<path style="fill:#263238;" d="M411.342,316.798c0.008,0.004-0.03,0.099-0.111,0.281c-0.096,0.206-0.218,0.47-0.371,0.8
				c-0.353,0.73-0.846,1.752-1.473,3.051c-1.298,2.64-3.136,6.48-5.362,11.245c-2.233,4.762-4.802,10.473-7.564,16.854
				c-2.738,6.391-5.655,13.457-8.557,20.938c-2.886,7.49-5.482,14.682-7.756,21.253c-2.25,6.58-4.191,12.534-5.742,17.56
				c-1.559,5.023-2.781,9.1-3.597,11.926c-0.41,1.383-0.732,2.47-0.963,3.248c-0.109,0.347-0.195,0.624-0.263,0.841
				c-0.062,0.189-0.098,0.284-0.107,0.282c-0.009-0.002,0.01-0.103,0.055-0.296c0.055-0.221,0.125-0.503,0.213-0.855
				c0.208-0.784,0.499-1.881,0.869-3.275c0.756-2.844,1.925-6.939,3.44-11.979c1.507-5.042,3.414-11.013,5.641-17.607
				c2.251-6.586,4.836-13.79,7.724-21.286c2.905-7.487,5.838-14.554,8.603-20.94c2.788-6.376,5.394-12.076,7.671-16.821
				c2.27-4.748,4.16-8.565,5.514-11.178c0.665-1.281,1.187-2.288,1.561-3.008c0.172-0.32,0.31-0.576,0.418-0.776
				C411.281,316.881,411.334,316.794,411.342,316.798z"/>
		</g>
		<g>
			<path style="fill:#263238;" d="M360.862,431.544c-0.018,0.002-0.058-0.172-0.119-0.505c-0.064-0.392-0.143-0.874-0.239-1.459
				c-0.186-1.269-0.503-3.099-0.947-5.346c-0.436-2.25-1.06-4.907-1.854-7.829c-0.82-2.915-1.825-6.09-3.05-9.363
				c-1.244-3.267-2.589-6.315-3.9-9.045c-1.336-2.718-2.624-5.125-3.783-7.101c-1.152-1.98-2.123-3.563-2.822-4.638
				c-0.314-0.502-0.574-0.916-0.785-1.253c-0.175-0.29-0.259-0.447-0.245-0.457c0.015-0.01,0.128,0.127,0.331,0.398
				c0.233,0.323,0.519,0.719,0.867,1.2c0.753,1.042,1.774,2.599,2.97,4.563c1.204,1.96,2.532,4.358,3.897,7.078
				c1.341,2.731,2.706,5.789,3.957,9.072c1.231,3.289,2.228,6.486,3.026,9.421c0.772,2.943,1.361,5.62,1.753,7.887
				c0.4,2.264,0.662,4.108,0.787,5.388c0.057,0.591,0.104,1.077,0.142,1.473C360.875,431.363,360.88,431.542,360.862,431.544z"/>
		</g>
		<rect x="339.803" y="425.077" style="fill:#FF725E;" width="53.031" height="10.818"/>
		<polygon style="fill:#FF725E;" points="344.856,435.894 350.593,472.28 382.637,472.28 387.984,435.894 		"/>
		<g>
			<path style="fill:#263238;" d="M389.581,435.894c0,0.144-10.032,0.26-22.404,0.26c-12.376,0-22.406-0.117-22.406-0.26
				s10.03-0.26,22.406-0.26C379.549,435.634,389.581,435.751,389.581,435.894z"/>
		</g>
	</g>
</g>
<g id="Floor">
	<g>
		<path style="fill:#263238;" d="M449.321,472.624c0,0.144-89.246,0.26-199.311,0.26c-110.104,0-199.331-0.117-199.331-0.26
			s89.227-0.26,199.331-0.26C360.075,472.364,449.321,472.48,449.321,472.624z"/>
	</g>
</g>
</svg>
